<svg width="64" height="64" viewBox="0 0 64 64" fill="none" xmlns="http://www.w3.org/2000/svg">
<rect width="64" height="64" rx="12" fill="#F3F4F6"/>
<path d="M42.5 21H20.5C19.9696 21 19.4609 21.2107 19.0858 21.5858C18.7107 21.9609 18.5 22.4696 18.5 23V41C18.5 41.5304 18.7107 42.0391 19.0858 42.4142C19.4609 42.7893 19.9696 43 20.5 43H42.5C43.0304 43 43.5391 42.7893 43.9142 42.4142C44.2893 42.0391 44.5 41.5304 44.5 41V23C44.5 22.4696 44.2893 21.9609 43.9142 21.5858C43.5391 21.2107 43.0304 21 42.5 21ZM27.1 34.2C27.3122 34.3591 27.4524 34.596 27.4899 34.8586C27.5275 35.1211 27.4591 35.3878 27.3 35.6C27.1409 35.8122 26.904 35.9524 26.6414 35.99C26.3789 36.0275 26.1122 35.9591 25.9 35.8L21.9 32.8C21.7758 32.7069 21.675 32.5861 21.6056 32.4472C21.5361 32.3084 21.5 32.1552 21.5 32C21.5 31.8448 21.5361 31.6916 21.6056 31.5528C21.675 31.4139 21.7758 31.2931 21.9 31.2L25.9 28.2C26.1122 28.0409 26.3789 27.9725 26.6414 28.0101C26.904 28.0476 27.1409 28.1878 27.3 28.4C27.4591 28.6122 27.5275 28.8789 27.4899 29.1414C27.4524 29.404 27.3122 29.6409 27.1 29.8L24.1663 32L27.1 34.2ZM34.4613 25.275L30.4613 39.275C30.4272 39.4035 30.3678 39.5239 30.2866 39.6292C30.2054 39.7345 30.1041 39.8225 29.9885 39.8882C29.8728 39.9538 29.7453 39.9958 29.6133 40.0115C29.4813 40.0273 29.3475 40.0166 29.2196 39.98C29.0918 39.9434 28.9726 39.8818 28.8689 39.7986C28.7652 39.7154 28.6791 39.6123 28.6157 39.4955C28.5523 39.3786 28.5129 39.2503 28.4996 39.118C28.4864 38.9857 28.4997 38.8521 28.5387 38.725L32.5387 24.725C32.6156 24.4747 32.7876 24.2645 33.0178 24.1396C33.248 24.0147 33.518 23.9851 33.7697 24.0571C34.0215 24.1292 34.235 24.2971 34.3643 24.5248C34.4936 24.7525 34.5284 25.0219 34.4613 25.275ZM41.1 32.8L37.1 35.8C36.8878 35.9591 36.6211 36.0275 36.3586 35.99C36.096 35.9524 35.8591 35.8122 35.7 35.6C35.5409 35.3878 35.4725 35.1211 35.51 34.8586C35.5476 34.596 35.6878 34.3591 35.9 34.2L38.8337 32L35.9 29.8C35.7949 29.7212 35.7064 29.6225 35.6395 29.5095C35.5726 29.3965 35.5286 29.2714 35.51 29.1414C35.4915 29.0114 35.4987 28.879 35.5313 28.7518C35.5639 28.6246 35.6212 28.5051 35.7 28.4C35.7788 28.2949 35.8775 28.2064 35.9905 28.1395C36.1035 28.0726 36.2286 28.0286 36.3586 28.0101C36.4886 27.9915 36.621 27.9987 36.7482 28.0313C36.8754 28.0639 36.9949 28.1212 37.1 28.2L41.1 31.2C41.2242 31.2931 41.325 31.4139 41.3944 31.5528C41.4639 31.6916 41.5 31.8448 41.5 32C41.5 32.1552 41.4639 32.3084 41.3944 32.4472C41.325 32.5861 41.2242 32.7069 41.1 32.8Z" fill="#FB6B1A"/>
</svg>
