<svg width="32" height="32" viewBox="0 0 32 32" fill="none" xmlns="http://www.w3.org/2000/svg">
<path d="M27 5H5C4.46957 5 3.96086 5.21071 3.58579 5.58579C3.21071 5.96086 3 6.46957 3 7V25C3 25.5304 3.21071 26.0391 3.58579 26.4142C3.96086 26.7893 4.46957 27 5 27H27C27.5304 27 28.0391 26.7893 28.4142 26.4142C28.7893 26.0391 29 25.5304 29 25V7C29 6.46957 28.7893 5.96086 28.4142 5.58579C28.0391 5.21071 27.5304 5 27 5ZM11.6 18.2C11.8122 18.3591 11.9524 18.596 11.9899 18.8586C12.0275 19.1211 11.9591 19.3878 11.8 19.6C11.6409 19.8122 11.404 19.9524 11.1414 19.99C10.8789 20.0275 10.6122 19.9591 10.4 19.8L6.4 16.8C6.2758 16.7069 6.175 16.5861 6.10557 16.4472C6.03614 16.3084 6 16.1552 6 16C6 15.8448 6.03614 15.6916 6.10557 15.5528C6.175 15.4139 6.2758 15.2931 6.4 15.2L10.4 12.2C10.6122 12.0409 10.8789 11.9725 11.1414 12.0101C11.404 12.0476 11.6409 12.1878 11.8 12.4C11.9591 12.6122 12.0275 12.8789 11.9899 13.1414C11.9524 13.404 11.8122 13.6409 11.6 13.8L8.66625 16L11.6 18.2ZM18.9613 9.275L14.9613 23.275C14.9272 23.4035 14.8678 23.5239 14.7866 23.6292C14.7054 23.7345 14.6041 23.8225 14.4885 23.8882C14.3728 23.9538 14.2453 23.9958 14.1133 24.0115C13.9813 24.0273 13.8475 24.0166 13.7196 23.98C13.5918 23.9434 13.4726 23.8818 13.3689 23.7986C13.2652 23.7154 13.1791 23.6123 13.1157 23.4955C13.0523 23.3786 13.0129 23.2503 12.9996 23.118C12.9864 22.9857 12.9997 22.8521 13.0387 22.725L17.0387 8.725C17.1156 8.47467 17.2876 8.26448 17.5178 8.13961C17.748 8.01473 18.018 7.98512 18.2697 8.05715C18.5215 8.12918 18.735 8.29709 18.8643 8.52481C18.9936 8.75253 19.0284 9.02189 18.9613 9.275ZM25.6 16.8L21.6 19.8C21.3878 19.9591 21.1211 20.0275 20.8586 19.99C20.596 19.9524 20.3591 19.8122 20.2 19.6C20.0409 19.3878 19.9725 19.1211 20.01 18.8586C20.0476 18.596 20.1878 18.3591 20.4 18.2L23.3337 16L20.4 13.8C20.2949 13.7212 20.2064 13.6225 20.1395 13.5095C20.0726 13.3965 20.0286 13.2714 20.01 13.1414C19.9915 13.0114 19.9987 12.879 20.0313 12.7518C20.0639 12.6246 20.1212 12.5051 20.2 12.4C20.2788 12.2949 20.3775 12.2064 20.4905 12.1395C20.6035 12.0726 20.7286 12.0286 20.8586 12.0101C20.9886 11.9915 21.121 11.9987 21.2482 12.0313C21.3754 12.0639 21.4949 12.1212 21.6 12.2L25.6 15.2C25.7242 15.2931 25.825 15.4139 25.8944 15.5528C25.9639 15.6916 26 15.8448 26 16C26 16.1552 25.9639 16.3084 25.8944 16.4472C25.825 16.5861 25.7242 16.7069 25.6 16.8Z" fill="#020948"/>
</svg>
